<mxfile host="Electron" agent="Mozilla/5.0 (Windows NT 10.0; Win64; x64) AppleWebKit/537.36 (KHTML, like Gecko) draw.io/26.2.2 Chrome/134.0.6998.178 Electron/35.1.2 Safari/537.36" version="26.2.2">
  <diagram id="C5RBs43oDa-KdzZeNtuy" name="Page-1">
    <mxGraphModel dx="603" dy="370" grid="1" gridSize="10" guides="1" tooltips="1" connect="1" arrows="1" fold="1" page="1" pageScale="1" pageWidth="827" pageHeight="1169" math="0" shadow="0">
      <root>
        <mxCell id="WIyWlLk6GJQsqaUBKTNV-0" />
        <mxCell id="WIyWlLk6GJQsqaUBKTNV-1" parent="WIyWlLk6GJQsqaUBKTNV-0" />
        <mxCell id="tJ2e5QiOdZ2MA2_U7Rux-7" value="" style="edgeStyle=orthogonalEdgeStyle;rounded=0;orthogonalLoop=1;jettySize=auto;html=1;" edge="1" parent="WIyWlLk6GJQsqaUBKTNV-1" source="tJ2e5QiOdZ2MA2_U7Rux-0" target="tJ2e5QiOdZ2MA2_U7Rux-1">
          <mxGeometry relative="1" as="geometry" />
        </mxCell>
        <mxCell id="tJ2e5QiOdZ2MA2_U7Rux-0" value="app_main() bắt đầu" style="rounded=0;whiteSpace=wrap;html=1;fillColor=#d5e8d4;strokeColor=#82b366;" vertex="1" parent="WIyWlLk6GJQsqaUBKTNV-1">
          <mxGeometry x="140" y="40" width="170" height="60" as="geometry" />
        </mxCell>
        <mxCell id="tJ2e5QiOdZ2MA2_U7Rux-8" value="" style="edgeStyle=orthogonalEdgeStyle;rounded=0;orthogonalLoop=1;jettySize=auto;html=1;" edge="1" parent="WIyWlLk6GJQsqaUBKTNV-1" source="tJ2e5QiOdZ2MA2_U7Rux-1" target="tJ2e5QiOdZ2MA2_U7Rux-3">
          <mxGeometry relative="1" as="geometry" />
        </mxCell>
        <mxCell id="tJ2e5QiOdZ2MA2_U7Rux-1" value="Khởi tạo UART" style="rounded=0;whiteSpace=wrap;html=1;" vertex="1" parent="WIyWlLk6GJQsqaUBKTNV-1">
          <mxGeometry x="140" y="130" width="170" height="60" as="geometry" />
        </mxCell>
        <mxCell id="tJ2e5QiOdZ2MA2_U7Rux-2" value="Khởi tạo I2C" style="rounded=0;whiteSpace=wrap;html=1;" vertex="1" parent="WIyWlLk6GJQsqaUBKTNV-1">
          <mxGeometry x="140" y="220" width="170" height="60" as="geometry" />
        </mxCell>
        <mxCell id="tJ2e5QiOdZ2MA2_U7Rux-9" value="" style="edgeStyle=orthogonalEdgeStyle;rounded=0;orthogonalLoop=1;jettySize=auto;html=1;" edge="1" parent="WIyWlLk6GJQsqaUBKTNV-1" source="tJ2e5QiOdZ2MA2_U7Rux-3" target="tJ2e5QiOdZ2MA2_U7Rux-5">
          <mxGeometry relative="1" as="geometry">
            <Array as="points">
              <mxPoint x="330" y="340" />
              <mxPoint x="330" y="340" />
            </Array>
          </mxGeometry>
        </mxCell>
        <mxCell id="tJ2e5QiOdZ2MA2_U7Rux-3" value="Khởi tạo MPU6050" style="rounded=0;whiteSpace=wrap;html=1;" vertex="1" parent="WIyWlLk6GJQsqaUBKTNV-1">
          <mxGeometry x="140" y="300" width="170" height="60" as="geometry" />
        </mxCell>
        <mxCell id="tJ2e5QiOdZ2MA2_U7Rux-11" value="" style="edgeStyle=orthogonalEdgeStyle;rounded=0;orthogonalLoop=1;jettySize=auto;html=1;" edge="1" parent="WIyWlLk6GJQsqaUBKTNV-1" source="tJ2e5QiOdZ2MA2_U7Rux-4">
          <mxGeometry relative="1" as="geometry">
            <mxPoint x="580" y="180" as="targetPoint" />
          </mxGeometry>
        </mxCell>
        <mxCell id="tJ2e5QiOdZ2MA2_U7Rux-4" value="Tạo các task&lt;div&gt;- task_sensor&lt;/div&gt;&lt;div&gt;- task_sim4g_gps&lt;/div&gt;&lt;div&gt;-task_debug&lt;/div&gt;" style="rounded=0;whiteSpace=wrap;html=1;" vertex="1" parent="WIyWlLk6GJQsqaUBKTNV-1">
          <mxGeometry x="350" y="110" width="170" height="140" as="geometry" />
        </mxCell>
        <mxCell id="tJ2e5QiOdZ2MA2_U7Rux-10" value="" style="edgeStyle=orthogonalEdgeStyle;rounded=0;orthogonalLoop=1;jettySize=auto;html=1;" edge="1" parent="WIyWlLk6GJQsqaUBKTNV-1" source="tJ2e5QiOdZ2MA2_U7Rux-5" target="tJ2e5QiOdZ2MA2_U7Rux-4">
          <mxGeometry relative="1" as="geometry" />
        </mxCell>
        <mxCell id="tJ2e5QiOdZ2MA2_U7Rux-5" value="Khởi tạo modul SIM_4G" style="rounded=0;whiteSpace=wrap;html=1;" vertex="1" parent="WIyWlLk6GJQsqaUBKTNV-1">
          <mxGeometry x="350" y="310" width="170" height="50" as="geometry" />
        </mxCell>
        <mxCell id="tJ2e5QiOdZ2MA2_U7Rux-13" value="Kết thúc app_main chuyển sang FreeRTOS" style="rounded=1;whiteSpace=wrap;html=1;fillColor=#f8cecc;strokeColor=#b85450;" vertex="1" parent="WIyWlLk6GJQsqaUBKTNV-1">
          <mxGeometry x="560" y="150" width="140" height="90" as="geometry" />
        </mxCell>
      </root>
    </mxGraphModel>
  </diagram>
</mxfile>
